<mxfile host="Electron" agent="Mozilla/5.0 (Windows NT 10.0; Win64; x64) AppleWebKit/537.36 (KHTML, like Gecko) draw.io/24.7.8 Chrome/128.0.6613.36 Electron/32.0.1 Safari/537.36" version="24.7.8" pages="2">
  <diagram name="Page-1" id="0rpQPjOwYsWJOKX8VRgC">
    <mxGraphModel dx="3354" dy="1356" grid="1" gridSize="10" guides="1" tooltips="1" connect="1" arrows="1" fold="1" page="1" pageScale="1" pageWidth="850" pageHeight="1100" math="0" shadow="0">
      <root>
        <mxCell id="0" />
        <mxCell id="1" parent="0" />
        <mxCell id="eah_Wrp4yX6WBgLpeoJf-4" value="" style="edgeStyle=orthogonalEdgeStyle;rounded=0;orthogonalLoop=1;jettySize=auto;html=1;" parent="1" source="eah_Wrp4yX6WBgLpeoJf-1" target="eah_Wrp4yX6WBgLpeoJf-8" edge="1">
          <mxGeometry relative="1" as="geometry">
            <mxPoint x="140" y="220" as="targetPoint" />
          </mxGeometry>
        </mxCell>
        <mxCell id="eah_Wrp4yX6WBgLpeoJf-1" value="robot container" style="shape=process;whiteSpace=wrap;html=1;backgroundOutline=1;" parent="1" vertex="1">
          <mxGeometry x="80" y="80" width="120" height="60" as="geometry" />
        </mxCell>
        <mxCell id="eah_Wrp4yX6WBgLpeoJf-15" value="" style="edgeStyle=orthogonalEdgeStyle;rounded=0;orthogonalLoop=1;jettySize=auto;html=1;" parent="1" source="eah_Wrp4yX6WBgLpeoJf-2" target="eah_Wrp4yX6WBgLpeoJf-14" edge="1">
          <mxGeometry relative="1" as="geometry" />
        </mxCell>
        <mxCell id="eah_Wrp4yX6WBgLpeoJf-2" value="command&lt;div&gt;get&lt;span style=&quot;background-color: initial;&quot;&gt;Target&lt;/span&gt;&lt;/div&gt;" style="shape=process;whiteSpace=wrap;html=1;backgroundOutline=1;" parent="1" vertex="1">
          <mxGeometry x="340" y="175" width="120" height="60" as="geometry" />
        </mxCell>
        <mxCell id="eah_Wrp4yX6WBgLpeoJf-10" style="edgeStyle=orthogonalEdgeStyle;rounded=0;orthogonalLoop=1;jettySize=auto;html=1;exitX=1;exitY=0.5;exitDx=0;exitDy=0;entryX=0;entryY=0.5;entryDx=0;entryDy=0;" parent="1" source="eah_Wrp4yX6WBgLpeoJf-8" target="eah_Wrp4yX6WBgLpeoJf-2" edge="1">
          <mxGeometry relative="1" as="geometry" />
        </mxCell>
        <mxCell id="eah_Wrp4yX6WBgLpeoJf-8" value="&#xa;&lt;span style=&quot;color: rgb(0, 0, 0); font-family: Helvetica; font-size: 12px; font-style: normal; font-variant-ligatures: normal; font-variant-caps: normal; font-weight: 400; letter-spacing: normal; orphans: 2; text-indent: 0px; text-transform: none; widows: 2; word-spacing: 0px; -webkit-text-stroke-width: 0px; white-space: normal; background-color: rgb(251, 251, 251); text-decoration-thickness: initial; text-decoration-style: initial; text-decoration-color: initial; float: none; display: inline !important;&quot;&gt;create a new swerveinputstream that implemts vison stearing corrections&lt;/span&gt;&#xa;&#xa;" style="rounded=0;whiteSpace=wrap;html=1;align=center;spacingTop=10;" parent="1" vertex="1">
          <mxGeometry x="80" y="170" width="120" height="70" as="geometry" />
        </mxCell>
        <mxCell id="eah_Wrp4yX6WBgLpeoJf-11" value="Create a new command that will get targets from limelight" style="shape=callout;whiteSpace=wrap;html=1;perimeter=calloutPerimeter;" parent="1" vertex="1">
          <mxGeometry x="340" y="95" width="120" height="80" as="geometry" />
        </mxCell>
        <mxCell id="eah_Wrp4yX6WBgLpeoJf-14" value="Call to the limelight subsystem to&amp;nbsp;" style="shape=process;whiteSpace=wrap;html=1;backgroundOutline=1;" parent="1" vertex="1">
          <mxGeometry x="340" y="315" width="120" height="60" as="geometry" />
        </mxCell>
        <mxCell id="eah_Wrp4yX6WBgLpeoJf-18" value="" style="edgeStyle=orthogonalEdgeStyle;rounded=0;orthogonalLoop=1;jettySize=auto;html=1;" parent="1" source="eah_Wrp4yX6WBgLpeoJf-16" target="eah_Wrp4yX6WBgLpeoJf-17" edge="1">
          <mxGeometry relative="1" as="geometry" />
        </mxCell>
        <mxCell id="eah_Wrp4yX6WBgLpeoJf-22" value="" style="edgeStyle=orthogonalEdgeStyle;rounded=0;orthogonalLoop=1;jettySize=auto;html=1;" parent="1" source="eah_Wrp4yX6WBgLpeoJf-16" target="eah_Wrp4yX6WBgLpeoJf-21" edge="1">
          <mxGeometry relative="1" as="geometry" />
        </mxCell>
        <mxCell id="eah_Wrp4yX6WBgLpeoJf-16" value="New&lt;div&gt;SwerveInputStream&lt;/div&gt;" style="shape=parallelogram;perimeter=parallelogramPerimeter;whiteSpace=wrap;html=1;fixedSize=1;size=10;" parent="1" vertex="1">
          <mxGeometry x="30" y="460" width="140" height="50" as="geometry" />
        </mxCell>
        <mxCell id="eah_Wrp4yX6WBgLpeoJf-20" value="" style="edgeStyle=orthogonalEdgeStyle;rounded=0;orthogonalLoop=1;jettySize=auto;html=1;" parent="1" source="eah_Wrp4yX6WBgLpeoJf-17" target="eah_Wrp4yX6WBgLpeoJf-19" edge="1">
          <mxGeometry relative="1" as="geometry" />
        </mxCell>
        <mxCell id="eah_Wrp4yX6WBgLpeoJf-24" value="" style="edgeStyle=orthogonalEdgeStyle;rounded=0;orthogonalLoop=1;jettySize=auto;html=1;" parent="1" source="eah_Wrp4yX6WBgLpeoJf-17" target="eah_Wrp4yX6WBgLpeoJf-23" edge="1">
          <mxGeometry relative="1" as="geometry" />
        </mxCell>
        <mxCell id="eah_Wrp4yX6WBgLpeoJf-17" value="LimeLight&lt;div&gt;Activate Command&lt;/div&gt;" style="shape=parallelogram;perimeter=parallelogramPerimeter;whiteSpace=wrap;html=1;fixedSize=1;size=10;" parent="1" vertex="1">
          <mxGeometry x="30" y="530" width="140" height="50" as="geometry" />
        </mxCell>
        <mxCell id="eah_Wrp4yX6WBgLpeoJf-26" value="" style="edgeStyle=orthogonalEdgeStyle;rounded=0;orthogonalLoop=1;jettySize=auto;html=1;" parent="1" source="eah_Wrp4yX6WBgLpeoJf-19" target="eah_Wrp4yX6WBgLpeoJf-25" edge="1">
          <mxGeometry relative="1" as="geometry" />
        </mxCell>
        <mxCell id="eah_Wrp4yX6WBgLpeoJf-19" value="LimeLight&lt;div&gt;Vision SubSystem&lt;/div&gt;" style="shape=parallelogram;perimeter=parallelogramPerimeter;whiteSpace=wrap;html=1;fixedSize=1;size=10;" parent="1" vertex="1">
          <mxGeometry x="30" y="600" width="140" height="50" as="geometry" />
        </mxCell>
        <mxCell id="eah_Wrp4yX6WBgLpeoJf-21" value="this will allow for us to pass in limelight course corrections to the user&#39;s stearing inputs" style="whiteSpace=wrap;html=1;" parent="1" vertex="1">
          <mxGeometry x="260" y="455" width="140" height="60" as="geometry" />
        </mxCell>
        <mxCell id="eah_Wrp4yX6WBgLpeoJf-23" value="While the activation button is being held, it should call to the limelight vision subsystem" style="whiteSpace=wrap;html=1;" parent="1" vertex="1">
          <mxGeometry x="260" y="525" width="140" height="60" as="geometry" />
        </mxCell>
        <mxCell id="eah_Wrp4yX6WBgLpeoJf-25" value="This should handle target retrieval and calculations needed to reach the target. it should then pass them back&amp;nbsp;" style="whiteSpace=wrap;html=1;" parent="1" vertex="1">
          <mxGeometry x="260" y="595" width="140" height="75" as="geometry" />
        </mxCell>
      </root>
    </mxGraphModel>
  </diagram>
  <diagram id="-WoqQx-fESFMOAoe_d0N" name="Page-2">
    <mxGraphModel dx="1231" dy="500" grid="1" gridSize="10" guides="1" tooltips="1" connect="1" arrows="1" fold="1" page="1" pageScale="1" pageWidth="850" pageHeight="1100" math="0" shadow="0">
      <root>
        <mxCell id="0" />
        <mxCell id="1" parent="0" />
        <mxCell id="YonnuxpWWJXZYO2jovRs-5" value="" style="edgeStyle=orthogonalEdgeStyle;rounded=0;orthogonalLoop=1;jettySize=auto;html=1;endArrow=none;endFill=0;strokeColor=#80FF00;" edge="1" parent="1" source="YonnuxpWWJXZYO2jovRs-1" target="YonnuxpWWJXZYO2jovRs-4">
          <mxGeometry relative="1" as="geometry" />
        </mxCell>
        <mxCell id="YonnuxpWWJXZYO2jovRs-1" value="RobotContainer" style="shape=hexagon;perimeter=hexagonPerimeter2;whiteSpace=wrap;html=1;fixedSize=1;fillColor=#fff2cc;strokeColor=#d6b656;" vertex="1" parent="1">
          <mxGeometry x="40" y="40" width="120" height="80" as="geometry" />
        </mxCell>
        <mxCell id="YonnuxpWWJXZYO2jovRs-12" style="edgeStyle=orthogonalEdgeStyle;rounded=0;orthogonalLoop=1;jettySize=auto;html=1;exitX=1;exitY=0.5;exitDx=0;exitDy=0;strokeColor=#FF0000;entryX=0.5;entryY=1;entryDx=0;entryDy=0;" edge="1" parent="1" source="YonnuxpWWJXZYO2jovRs-2" target="YonnuxpWWJXZYO2jovRs-13">
          <mxGeometry relative="1" as="geometry">
            <mxPoint x="240" y="330" as="targetPoint" />
            <Array as="points">
              <mxPoint x="230" y="450" />
            </Array>
          </mxGeometry>
        </mxCell>
        <mxCell id="YonnuxpWWJXZYO2jovRs-2" value="Subsystems" style="shape=hexagon;perimeter=hexagonPerimeter2;whiteSpace=wrap;html=1;fixedSize=1;fillColor=#fff2cc;strokeColor=#d6b656;" vertex="1" parent="1">
          <mxGeometry x="40" y="410" width="120" height="80" as="geometry" />
        </mxCell>
        <mxCell id="YonnuxpWWJXZYO2jovRs-10" value="" style="edgeStyle=orthogonalEdgeStyle;rounded=0;orthogonalLoop=1;jettySize=auto;html=1;endArrow=none;endFill=0;fillColor=#d5e8d4;strokeColor=#80FF00;" edge="1" parent="1" source="YonnuxpWWJXZYO2jovRs-3" target="YonnuxpWWJXZYO2jovRs-9">
          <mxGeometry relative="1" as="geometry" />
        </mxCell>
        <mxCell id="YonnuxpWWJXZYO2jovRs-15" style="edgeStyle=orthogonalEdgeStyle;rounded=0;orthogonalLoop=1;jettySize=auto;html=1;exitX=1;exitY=0.25;exitDx=0;exitDy=0;strokeColor=#FF0000;" edge="1" parent="1" source="YonnuxpWWJXZYO2jovRs-3" target="YonnuxpWWJXZYO2jovRs-16">
          <mxGeometry relative="1" as="geometry">
            <mxPoint x="240" y="200" as="targetPoint" />
          </mxGeometry>
        </mxCell>
        <mxCell id="YonnuxpWWJXZYO2jovRs-3" value="Commands" style="shape=hexagon;perimeter=hexagonPerimeter2;whiteSpace=wrap;html=1;fixedSize=1;fillColor=#fff2cc;strokeColor=#d6b656;" vertex="1" parent="1">
          <mxGeometry x="40" y="220" width="120" height="80" as="geometry" />
        </mxCell>
        <mxCell id="YonnuxpWWJXZYO2jovRs-6" style="edgeStyle=orthogonalEdgeStyle;rounded=0;orthogonalLoop=1;jettySize=auto;html=1;entryX=0.5;entryY=0;entryDx=0;entryDy=0;strokeColor=#80FF00;" edge="1" parent="1" source="YonnuxpWWJXZYO2jovRs-4" target="YonnuxpWWJXZYO2jovRs-3">
          <mxGeometry relative="1" as="geometry" />
        </mxCell>
        <mxCell id="YonnuxpWWJXZYO2jovRs-4" value="&lt;i style=&quot;font-size: 10px;&quot;&gt;&lt;font style=&quot;font-size: 10px;&quot;&gt;Houses keybindings/ commandbindings and calls to the Commands System&lt;/font&gt;&lt;/i&gt;" style="whiteSpace=wrap;html=1;align=left;fontSize=10;verticalAlign=middle;labelPosition=center;verticalLabelPosition=middle;labelBackgroundColor=none;labelBorderColor=none;spacing=2;spacingTop=-7;strokeColor=#80FF00;" vertex="1" parent="1">
          <mxGeometry x="40" y="140" width="120" height="60" as="geometry" />
        </mxCell>
        <mxCell id="YonnuxpWWJXZYO2jovRs-11" value="" style="edgeStyle=orthogonalEdgeStyle;rounded=0;orthogonalLoop=1;jettySize=auto;html=1;fillColor=#d5e8d4;strokeColor=#80FF00;" edge="1" parent="1" source="YonnuxpWWJXZYO2jovRs-9" target="YonnuxpWWJXZYO2jovRs-2">
          <mxGeometry relative="1" as="geometry" />
        </mxCell>
        <mxCell id="YonnuxpWWJXZYO2jovRs-9" value="&lt;font size=&quot;1&quot; style=&quot;&quot;&gt;&lt;i style=&quot;font-size: 9px;&quot;&gt;Commands import their respective Subsystems and imploment methods inside the class to atchieve a task that we call a command.&lt;/i&gt;&lt;/font&gt;" style="rounded=0;whiteSpace=wrap;html=1;align=left;fillColor=none;strokeColor=#80FF00;" vertex="1" parent="1">
          <mxGeometry x="40" y="320" width="120" height="70" as="geometry" />
        </mxCell>
        <mxCell id="YonnuxpWWJXZYO2jovRs-14" style="edgeStyle=orthogonalEdgeStyle;rounded=0;orthogonalLoop=1;jettySize=auto;html=1;exitX=0.5;exitY=0;exitDx=0;exitDy=0;entryX=1;entryY=0.75;entryDx=0;entryDy=0;fontColor=#FF0000;strokeColor=#FF0000;" edge="1" parent="1" source="YonnuxpWWJXZYO2jovRs-13" target="YonnuxpWWJXZYO2jovRs-3">
          <mxGeometry relative="1" as="geometry">
            <Array as="points">
              <mxPoint x="230" y="277" />
            </Array>
          </mxGeometry>
        </mxCell>
        <mxCell id="YonnuxpWWJXZYO2jovRs-13" value="&lt;i&gt;&lt;font style=&quot;font-size: 9px;&quot;&gt;A Subsystem must imploment all task that you want to be able to call upon in the Commands Class&lt;/font&gt;&lt;/i&gt;" style="rounded=0;html=1;strokeColor=#FF0000;align=left;verticalAlign=top;whiteSpace=wrap;spacing=2;spacingTop=-7;" vertex="1" parent="1">
          <mxGeometry x="170" y="320" width="120" height="70" as="geometry" />
        </mxCell>
        <mxCell id="YonnuxpWWJXZYO2jovRs-17" style="edgeStyle=orthogonalEdgeStyle;rounded=0;orthogonalLoop=1;jettySize=auto;html=1;exitX=0.5;exitY=0;exitDx=0;exitDy=0;entryX=1;entryY=0.5;entryDx=0;entryDy=0;strokeColor=#FF0000;" edge="1" parent="1" source="YonnuxpWWJXZYO2jovRs-16" target="YonnuxpWWJXZYO2jovRs-1">
          <mxGeometry relative="1" as="geometry" />
        </mxCell>
        <mxCell id="YonnuxpWWJXZYO2jovRs-16" value="&lt;font style=&quot;font-size: 9px;&quot;&gt;Commands are used to keep code clean and simple. this helps changes easier and reduces unintended bugs&amp;nbsp;&lt;/font&gt;" style="rounded=0;whiteSpace=wrap;html=1;align=left;strokeColor=#FF0000;" vertex="1" parent="1">
          <mxGeometry x="170" y="140" width="120" height="60" as="geometry" />
        </mxCell>
        <mxCell id="YonnuxpWWJXZYO2jovRs-18" value="" style="line;strokeWidth=2;direction=south;html=1;" vertex="1" parent="1">
          <mxGeometry x="310" y="40" width="10" height="460" as="geometry" />
        </mxCell>
        <mxCell id="YonnuxpWWJXZYO2jovRs-26" value="" style="edgeStyle=orthogonalEdgeStyle;rounded=0;orthogonalLoop=1;jettySize=auto;html=1;flowAnimation=1;exitX=0.375;exitY=1;exitDx=0;exitDy=0;entryX=0.5;entryY=0;entryDx=0;entryDy=0;endArrow=none;endFill=0;" edge="1" parent="1" source="YonnuxpWWJXZYO2jovRs-19" target="YonnuxpWWJXZYO2jovRs-25">
          <mxGeometry relative="1" as="geometry" />
        </mxCell>
        <mxCell id="YonnuxpWWJXZYO2jovRs-19" value="RobotContainer" style="shape=hexagon;perimeter=hexagonPerimeter2;whiteSpace=wrap;html=1;fixedSize=1;fillColor=#fff2cc;strokeColor=#d6b656;" vertex="1" parent="1">
          <mxGeometry x="360" y="40" width="120" height="80" as="geometry" />
        </mxCell>
        <mxCell id="YonnuxpWWJXZYO2jovRs-29" value="" style="edgeStyle=orthogonalEdgeStyle;rounded=0;orthogonalLoop=1;jettySize=auto;html=1;flowAnimation=1;exitX=0.332;exitY=0.999;exitDx=0;exitDy=0;exitPerimeter=0;endArrow=none;endFill=0;" edge="1" parent="1" source="YonnuxpWWJXZYO2jovRs-20" target="YonnuxpWWJXZYO2jovRs-28">
          <mxGeometry relative="1" as="geometry" />
        </mxCell>
        <mxCell id="YonnuxpWWJXZYO2jovRs-46" style="edgeStyle=orthogonalEdgeStyle;rounded=0;orthogonalLoop=1;jettySize=auto;html=1;exitX=0.625;exitY=0;exitDx=0;exitDy=0;entryX=1;entryY=0.5;entryDx=0;entryDy=0;flowAnimation=1;endArrow=none;endFill=0;" edge="1" parent="1" source="YonnuxpWWJXZYO2jovRs-20" target="YonnuxpWWJXZYO2jovRs-35">
          <mxGeometry relative="1" as="geometry">
            <Array as="points">
              <mxPoint x="555" y="138" />
            </Array>
          </mxGeometry>
        </mxCell>
        <mxCell id="YonnuxpWWJXZYO2jovRs-20" value="Commands" style="shape=hexagon;perimeter=hexagonPerimeter2;whiteSpace=wrap;html=1;fixedSize=1;fillColor=#fff2cc;strokeColor=#d6b656;" vertex="1" parent="1">
          <mxGeometry x="480" y="160" width="120" height="80" as="geometry" />
        </mxCell>
        <mxCell id="YonnuxpWWJXZYO2jovRs-32" value="" style="edgeStyle=orthogonalEdgeStyle;rounded=0;orthogonalLoop=1;jettySize=auto;html=1;flowAnimation=1;" edge="1" parent="1" source="YonnuxpWWJXZYO2jovRs-21" target="YonnuxpWWJXZYO2jovRs-31">
          <mxGeometry relative="1" as="geometry" />
        </mxCell>
        <mxCell id="YonnuxpWWJXZYO2jovRs-21" value="Subsystems" style="shape=hexagon;perimeter=hexagonPerimeter2;whiteSpace=wrap;html=1;fixedSize=1;fillColor=#fff2cc;strokeColor=#d6b656;" vertex="1" parent="1">
          <mxGeometry x="600" y="280" width="120" height="80" as="geometry" />
        </mxCell>
        <mxCell id="YonnuxpWWJXZYO2jovRs-27" style="edgeStyle=orthogonalEdgeStyle;rounded=0;orthogonalLoop=1;jettySize=auto;html=1;exitX=0.5;exitY=1;exitDx=0;exitDy=0;flowAnimation=1;" edge="1" parent="1" source="YonnuxpWWJXZYO2jovRs-25" target="YonnuxpWWJXZYO2jovRs-20">
          <mxGeometry relative="1" as="geometry" />
        </mxCell>
        <mxCell id="YonnuxpWWJXZYO2jovRs-37" value="1" style="edgeLabel;html=1;align=center;verticalAlign=middle;resizable=0;points=[];" vertex="1" connectable="0" parent="YonnuxpWWJXZYO2jovRs-27">
          <mxGeometry x="0.1964" y="2" relative="1" as="geometry">
            <mxPoint as="offset" />
          </mxGeometry>
        </mxCell>
        <mxCell id="YonnuxpWWJXZYO2jovRs-25" value="&lt;font style=&quot;font-size: 8px;&quot;&gt;If &#39;A&#39; is pressed,&lt;/font&gt;&lt;div style=&quot;font-size: 8px;&quot;&gt;&lt;font style=&quot;font-size: 8px;&quot;&gt;call command.armUp&lt;/font&gt;&lt;/div&gt;" style="whiteSpace=wrap;html=1;fillColor=#f5f5f5;strokeColor=#666666;fontColor=#333333;glass=0;rounded=0;align=center;spacingTop=-5;" vertex="1" parent="1">
          <mxGeometry x="360" y="150" width="90" height="30" as="geometry" />
        </mxCell>
        <mxCell id="YonnuxpWWJXZYO2jovRs-30" style="edgeStyle=orthogonalEdgeStyle;rounded=0;orthogonalLoop=1;jettySize=auto;html=1;exitX=0.5;exitY=1;exitDx=0;exitDy=0;entryX=0;entryY=0.5;entryDx=0;entryDy=0;flowAnimation=1;" edge="1" parent="1" source="YonnuxpWWJXZYO2jovRs-28" target="YonnuxpWWJXZYO2jovRs-21">
          <mxGeometry relative="1" as="geometry" />
        </mxCell>
        <mxCell id="YonnuxpWWJXZYO2jovRs-39" value="2" style="edgeLabel;html=1;align=center;verticalAlign=middle;resizable=0;points=[];" vertex="1" connectable="0" parent="YonnuxpWWJXZYO2jovRs-30">
          <mxGeometry x="0.006" y="-1" relative="1" as="geometry">
            <mxPoint as="offset" />
          </mxGeometry>
        </mxCell>
        <mxCell id="YonnuxpWWJXZYO2jovRs-28" value="&lt;div style=&quot;font-size: 8px;&quot;&gt;Execute&lt;/div&gt;subsystem.arm.setAngle(max)" style="whiteSpace=wrap;html=1;fillColor=#f5f5f5;strokeColor=#666666;fontSize=8;fontColor=#333333;" vertex="1" parent="1">
          <mxGeometry x="460" y="270" width="120" height="30" as="geometry" />
        </mxCell>
        <mxCell id="YonnuxpWWJXZYO2jovRs-33" style="edgeStyle=orthogonalEdgeStyle;rounded=0;orthogonalLoop=1;jettySize=auto;html=1;entryX=0.625;entryY=1;entryDx=0;entryDy=0;flowAnimation=1;" edge="1" parent="1" source="YonnuxpWWJXZYO2jovRs-31" target="YonnuxpWWJXZYO2jovRs-20">
          <mxGeometry relative="1" as="geometry">
            <Array as="points">
              <mxPoint x="660" y="260" />
              <mxPoint x="555" y="260" />
            </Array>
          </mxGeometry>
        </mxCell>
        <mxCell id="YonnuxpWWJXZYO2jovRs-41" value="3" style="edgeLabel;html=1;align=center;verticalAlign=middle;resizable=0;points=[];" vertex="1" connectable="0" parent="YonnuxpWWJXZYO2jovRs-33">
          <mxGeometry x="0.0258" y="1" relative="1" as="geometry">
            <mxPoint x="-18" y="-4" as="offset" />
          </mxGeometry>
        </mxCell>
        <mxCell id="YonnuxpWWJXZYO2jovRs-31" value="&lt;i style=&quot;font-size: 8px;&quot;&gt;&lt;font style=&quot;font-size: 8px;&quot;&gt;Rotated arm to the angle&lt;/font&gt;&lt;/i&gt;" style="whiteSpace=wrap;html=1;fillColor=#f5f5f5;strokeColor=#666666;fontColor=#333333;verticalAlign=top;fontSize=8;spacingTop=-7;" vertex="1" parent="1">
          <mxGeometry x="600" y="250" width="50" height="20" as="geometry" />
        </mxCell>
        <mxCell id="YonnuxpWWJXZYO2jovRs-36" style="edgeStyle=orthogonalEdgeStyle;rounded=0;orthogonalLoop=1;jettySize=auto;html=1;entryX=0.625;entryY=1;entryDx=0;entryDy=0;flowAnimation=1;exitX=0;exitY=0.5;exitDx=0;exitDy=0;" edge="1" parent="1" source="YonnuxpWWJXZYO2jovRs-35" target="YonnuxpWWJXZYO2jovRs-19">
          <mxGeometry relative="1" as="geometry">
            <mxPoint x="560" y="110" as="sourcePoint" />
            <Array as="points">
              <mxPoint x="435" y="140" />
            </Array>
          </mxGeometry>
        </mxCell>
        <mxCell id="YonnuxpWWJXZYO2jovRs-42" value="4" style="edgeLabel;html=1;align=center;verticalAlign=middle;resizable=0;points=[];" vertex="1" connectable="0" parent="YonnuxpWWJXZYO2jovRs-36">
          <mxGeometry x="0.2548" y="-1" relative="1" as="geometry">
            <mxPoint x="14" y="1" as="offset" />
          </mxGeometry>
        </mxCell>
        <mxCell id="YonnuxpWWJXZYO2jovRs-35" value="Command ran" style="rounded=0;whiteSpace=wrap;html=1;fontSize=9;fontStyle=2;fillColor=#f5f5f5;fontColor=#333333;strokeColor=#666666;" vertex="1" parent="1">
          <mxGeometry x="470" y="130" width="70" height="15" as="geometry" />
        </mxCell>
        <mxCell id="YonnuxpWWJXZYO2jovRs-44" value="Note" style="shape=note;strokeWidth=2;fontSize=14;size=13;whiteSpace=wrap;html=1;fillColor=#FFFBF0;strokeColor=#FFF2CC;fontColor=#666600;" vertex="1" parent="1">
          <mxGeometry x="635" y="15" width="185" height="130" as="geometry" />
        </mxCell>
      </root>
    </mxGraphModel>
  </diagram>
</mxfile>
